<?xml version="1.0" encoding="UTF-8"?>
<svg version="1.1" xmlns="http://www.w3.org/2000/svg" width="772" height="195">
<path d="M0 0 C2 2 2 2 2.4375 5.375 C2.08684434 16.65904856 -5.71207943 26.71309287 -11.8125 35.75 C-12.6096655 36.94729031 -13.40589505 38.14520434 -14.20117188 39.34375 C-16.12342127 42.23640853 -18.05804752 45.12052011 -20 48 C-19.22350098 47.22043945 -18.44700195 46.44087891 -17.64697266 45.63769531 C-15.27441896 43.27345715 -12.86376339 40.99074229 -10.375 38.75 C-9.61960937 38.06421875 -8.86421875 37.3784375 -8.0859375 36.671875 C-4.41894065 33.7327839 -0.76198756 33.58316664 3.76953125 33.671875 C6 34 6 34 9.0625 35.875 C11.8249733 40.3306021 11.82679245 43.89104664 11 49 C8.86637662 56.11626152 4.18862843 60.64201313 -2.171875 64.22265625 C-7.11574268 66.60082708 -11.54191839 67.60304861 -17 68 C-15.24545615 71.18234105 -15.24545615 71.18234105 -13 74 C-6.71896626 74.85706113 -2.00615452 74.24831934 3.1875 70.5625 C5.62817763 68.45846756 7.67059419 66.1625488 9.6796875 63.6484375 C11.31007748 61.61286184 13.12165817 59.80609792 15 58 C16 61 16 61 15.1015625 63.3828125 C9.65202355 73.50338484 2.41557642 82.55919832 -9 86 C-14.04381931 86.5132026 -17.01208679 85.78209796 -21 82.625 C-23.8610991 78.86980743 -24.15659515 76.09864118 -24.1875 71.5 C-24.20167969 70.5409375 -24.21585938 69.581875 -24.23046875 68.59375 C-24 66 -24 66 -22 63 C-20.1171875 62.6640625 -20.1171875 62.6640625 -17.875 62.625 C-12.62370448 62.18527799 -8.95067253 60.48798115 -5 57 C-3.14595036 54.67734441 -2.18646752 52.7856194 -1 50 C-1.33 49.01 -1.66 48.02 -2 47 C-11.80148814 49.22445121 -18.0717506 54.80470856 -23.6875 63 C-26.91401976 68.29059823 -28.97930424 73.87591332 -30.78393555 79.78125 C-31.4453125 81.7890625 -31.4453125 81.7890625 -33 85 C-35.5546875 86.0859375 -35.5546875 86.0859375 -38 86 C-40.76223278 83.23776722 -40.57856291 80.79293383 -41 77 C-41.721875 77.928125 -42.44375 78.85625 -43.1875 79.8125 C-46.00473856 83.14124835 -48.471393 85.53650788 -52.91796875 86.3515625 C-56.71999774 86.62262648 -58.59518249 86.25521104 -61.875 84.1875 C-64.85576303 79.71635546 -65.38158259 75.27039318 -66 70 C-66.59296875 70.32871094 -67.1859375 70.65742187 -67.796875 70.99609375 C-70 72 -70 72 -73.25 72.0625 C-78.24990733 73.31247683 -79.82551368 75.8940819 -83.03125 79.765625 C-86.67228355 83.89790911 -90.55245053 86.13453216 -96.125 86.625 C-100 86 -100 86 -102.8125 83.5 C-105.32491495 79.95206268 -106.65367821 76.10982442 -108 72 C-108.44730469 72.60328125 -108.89460937 73.2065625 -109.35546875 73.828125 C-116.47211414 83.23605707 -116.47211414 83.23605707 -122 86 C-126.59063993 86.63132573 -129.93216782 86.69641229 -133.875 84.125 C-136.68360099 79.99470443 -137.84800989 75.82337322 -139 71 C-139.44730469 71.67546875 -139.89460938 72.3509375 -140.35546875 73.046875 C-147.15300546 83.07650273 -147.15300546 83.07650273 -153 86 C-156.92552803 86.37033283 -159.3027906 86.37184501 -162.8125 84.5 C-165.78168189 81.10664927 -166.19184086 78.40814077 -167 74 C-167.58007812 74.92232422 -167.58007812 74.92232422 -168.171875 75.86328125 C-168.69265625 76.67152344 -169.2134375 77.47976562 -169.75 78.3125 C-170.51570313 79.51326172 -170.51570313 79.51326172 -171.296875 80.73828125 C-173.55532481 83.73746116 -175.53459202 85.58580597 -179.18359375 86.6171875 C-182.92426331 87.04506305 -185.33878122 87.2731121 -188.875 85.8125 C-192.32314972 82.87143112 -194.12396544 80.44446892 -195 76 C-195.06755818 74.4596734 -195.08509736 72.91664182 -195.0625 71.375 C-195.05476563 70.50359375 -195.04703125 69.6321875 -195.0390625 68.734375 C-195.01302083 66.91145833 -194.98697917 65.08854167 -194.9609375 63.265625 C-194.95320313 62.39421875 -194.94546875 61.5228125 -194.9375 60.625 C-194.92589844 59.83351562 -194.91429687 59.04203125 -194.90234375 58.2265625 C-194.99924806 56.01714421 -195.38565114 54.11877797 -196 52 C-197.58306647 51.83081732 -199.16646719 51.66476064 -200.75 51.5 C-201.63171875 51.4071875 -202.5134375 51.314375 -203.421875 51.21875 C-206.23304835 50.94363687 -206.23304835 50.94363687 -210 51 C-210.0928125 52.3303125 -210.0928125 52.3303125 -210.1875 53.6875 C-211.75123081 64.39471237 -216.94893493 75.8218443 -225.1875 83 C-229.17737252 85.83724268 -232.08292686 86.17829816 -236.875 86.25 C-237.90367187 86.27578125 -238.93234375 86.3015625 -239.9921875 86.328125 C-243.46349125 85.94943732 -245.24844474 85.12838072 -248 83 C-250.52427767 79.35548076 -250.14434056 76.35783775 -249.53125 72.12890625 C-248.74660136 68.98454223 -247.77317813 67.67850255 -245 66 C-241.25 65.75 -241.25 65.75 -238 66 C-238 66.66 -238 67.32 -238 68 C-238.515625 68.433125 -239.03125 68.86625 -239.5625 69.3125 C-240.036875 69.869375 -240.51125 70.42625 -241 71 C-240.76956136 73.65466049 -240.76956136 73.65466049 -240 76 C-236.15417411 75.82112438 -234.36164677 75.31754351 -231.4375 72.75 C-224.31627169 63.18474123 -222.05659456 49.51828087 -219.12695312 38.19726562 C-214.49424016 21.17321536 -214.49424016 21.17321536 -207.53149414 16.25708008 C-204.11404815 14.56005728 -201.76639758 14.52064031 -198 15 C-195.5625 17 -195.5625 17 -194 19 C-194.9075 19.495 -195.815 19.99 -196.75 20.5 C-204.36758083 25.68567709 -205.78930667 36.62758695 -208 45 C-193.61108238 42.40884902 -193.61108238 42.40884902 -183.0625 33.0625 C-181.88486937 29.66815288 -181.48085629 27.55984257 -182 24 C-185.05221921 18.01765035 -189.28537692 14.48584923 -195.44140625 12.0234375 C-206.47727765 8.58577159 -217.623525 8.59303411 -228 14 C-231.29561905 16.69030127 -233.38920216 19.08806238 -235 23 C-235.21457815 26.12513818 -234.85810959 28.98831213 -234 32 C-231.00535935 35.3273785 -228.41786263 36.49510141 -224 37 C-223.50953678 42.39509537 -223.50953678 42.39509537 -225.875 45.3125 C-229.37893225 48.09503443 -231.52818215 48.42998249 -236 48 C-239.46051683 46.23581495 -241.54581917 44.60557444 -243.875 41.5 C-246.0860644 34.62113299 -246.14949903 26.55887923 -243.16015625 19.87109375 C-237.91437889 11.41073228 -229.99212642 7.11399243 -220.85546875 3.890625 C-207.67505465 0.84590928 -191.39814784 1.45828116 -179.58203125 8.42578125 C-173.77631981 12.51833193 -169.69123036 16.95320683 -168 24 C-167.34447117 29.89975948 -168.4471504 34.29461742 -172 39 C-177.22980107 43.74689213 -181.9912929 45.74513792 -189 46 C-189 46.66 -189 47.32 -189 48 C-188.071875 48.3403125 -188.071875 48.3403125 -187.125 48.6875 C-184.30161103 50.43135789 -184.00708179 51.86890618 -183 55 C-182.68115234 57.77075195 -182.68115234 57.77075195 -182.5859375 60.73828125 C-182.54726562 61.80498047 -182.50859375 62.87167969 -182.46875 63.97070312 C-182.4378125 65.07349609 -182.406875 66.17628906 -182.375 67.3125 C-182.33632812 68.43462891 -182.29765625 69.55675781 -182.2578125 70.71289062 C-182.16377989 73.47509852 -182.07812659 76.237304 -182 79 C-177.60249314 78.61273306 -177.60249314 78.61273306 -174.0234375 76.21484375 C-169.11003363 69.42689481 -165.74916505 63.12246143 -162.89233398 55.23876953 C-157.38156869 40.05830312 -157.38156869 40.05830312 -153 35 C-150.984375 34.171875 -150.984375 34.171875 -149 34 C-146.192607 35.27001112 -144.45242643 36.38305486 -142.625 38.875 C-141.80510058 41.66265804 -142.23163026 43.19747246 -143 46 C-144.02383741 47.84676049 -145.11426872 49.65736466 -146.25 51.4375 C-151.40607645 60.04867922 -155.42562086 68.82379212 -155 79 C-148.72563698 77.4789423 -145.36052903 72.27476567 -141.76953125 67.29296875 C-138.75273512 62.17250635 -138.10546648 56.50349027 -137.22485352 50.7199707 C-136.1825223 44.19348315 -134.18820299 38.31763008 -131.79296875 32.171875 C-130.87991982 28.51967928 -131.3337941 27.28123142 -133 24 C-133.125 21.1875 -133.125 21.1875 -133 19 C-131.4840625 19.061875 -131.4840625 19.061875 -129.9375 19.125 C-127.03185076 18.73329276 -126.15800585 18.18509257 -124.22265625 15.91796875 C-123.05480403 14.15162537 -121.90421498 12.37376875 -120.76953125 10.5859375 C-117.9873774 6.52018507 -114.42313692 3.21156846 -110 1 C-106.5 0.8125 -106.5 0.8125 -103 1 C-100.56073259 3.43926741 -100.67759481 4.20169186 -100.625 7.5625 C-100.70503661 13.06101479 -102.41144927 17.21580356 -105 22 C-103.93072266 21.98259766 -103.93072266 21.98259766 -102.83984375 21.96484375 C-97.43674634 21.91393974 -92.32171525 22.05391729 -87 23 C-87.33 24.32 -87.66 25.64 -88 27 C-95.26 27.33 -102.52 27.66 -110 28 C-110.66 29.65 -111.32 31.3 -112 33 C-112.93019848 34.40514065 -113.91072288 35.77799945 -114.93359375 37.1171875 C-123.95519036 49.31388241 -128.35342048 58.46809993 -128 74 C-127.71479595 75.67557379 -127.40044304 77.34817245 -127 79 C-121.02454388 78.70851434 -117.88891415 76.2663934 -114 72 C-108.85047829 65.63376552 -107.10292987 59.035234 -105.47241211 51.20361328 C-104.0532586 44.59963159 -101.85326594 38.85326594 -97 34 C-93.92430852 33.67279878 -91.86178153 33.46510112 -89.1875 35.125 C-87.51967355 37.75841018 -87.26930179 39.89928913 -87 43 C-87.92578125 45.82421875 -87.92578125 45.82421875 -89.3125 48.6875 C-93.587431 58.3328875 -94.49101512 66.583043 -93 77 C-88.6225669 75.44648311 -86.70883293 73.81243153 -84 70 C-84.639375 69.2575 -85.27875 68.515 -85.9375 67.75 C-89.53169975 62.95773366 -89.61990733 57.8271289 -89 52 C-87.4788286 45.38382078 -85.36333219 40.13082181 -79.796875 36.02734375 C-77.10200675 34.48658212 -75.1067164 33.93246269 -72 34 C-67.43478261 36.13043478 -67.43478261 36.13043478 -66 39 C-64.68498197 49.31349853 -68.34514029 57.97305243 -73 67 C-71.906875 66.608125 -70.81375 66.21625 -69.6875 65.8125 C-69.07261719 65.59207031 -68.45773438 65.37164062 -67.82421875 65.14453125 C-63.77085475 62.60141422 -62.3660587 57.65503628 -60.6875 53.375 C-58.93605487 49.12524726 -57.09477346 44.96761653 -55 40.875 C-54.54625 39.98554687 -54.0925 39.09609375 -53.625 38.1796875 C-51.65554248 35.53796323 -50.15480725 34.84027561 -47 34 C-43.65660002 35.05078285 -43.00497688 35.99253469 -41 39 C-40.16345429 44.73870358 -42.47707705 48.3374217 -45.25 53.125 C-52.06098255 65.35658131 -52.06098255 65.35658131 -54 79 C-49.2525957 78.29668084 -46.19072366 75.43024904 -43.18920898 71.82495117 C-37.70252367 63.51565009 -34.95309131 54.7448015 -32.0625 45.3125 C-21.42237173 10.7311768 -21.42237173 10.7311768 -9.5625 1 C-6.21209283 -0.30747597 -3.56279842 -0.33611306 0 0 Z M-3 7 C-6.21801782 10.61095473 -8.29859709 14.30488746 -10.3125 18.6875 C-11.11107422 20.39486328 -11.11107422 20.39486328 -11.92578125 22.13671875 C-12.28027344 23.08160156 -12.63476562 24.02648437 -13 25 C-12.67 25.66 -12.34 26.32 -12 27 C-10.69741157 24.98553185 -9.4081308 22.96431387 -8.125 20.9375 C-7.57779297 20.09541992 -7.57779297 20.09541992 -7.01953125 19.23632812 C-4.50963982 15.24331902 -3.11014122 11.5866361 -2 7 C-2.33 7 -2.66 7 -3 7 Z M-108 12 C-110.97 15.96 -110.97 15.96 -114 20 C-112.68 20.33 -111.36 20.66 -110 21 C-108.37492804 18.1668838 -108.37492804 18.1668838 -107 15 C-107.33 14.01 -107.66 13.02 -108 12 Z M-117 28 C-117.33 29.32 -117.66 30.64 -118 32 C-117.01 31.01 -116.02 30.02 -115 29 C-115.66 28.67 -116.32 28.34 -117 28 Z M-119 32 C-118 34 -118 34 -118 34 Z M-74 41 C-78.55149299 47.06865731 -80.7329321 53.30421296 -80 61 C-79.34 61.66 -78.68 62.32 -78 63 C-74.08916501 55.93179365 -71.27123187 50.13695602 -71 42 C-71.99 41.67 -72.98 41.34 -74 41 Z " fill="#5584AC" transform="translate(294,32)"/>
<path d="M0 0 C2.52678281 3.79017421 2.34119902 5.53780318 1.78515625 9.94140625 C-1.30467701 21.97792091 -10.02676131 32.92595641 -17 43 C-16.25492187 42.39671875 -15.50984375 41.7934375 -14.7421875 41.171875 C-6.02854671 34.2704729 -6.02854671 34.2704729 -0.25 33.5 C3.24288248 34.03736654 4.4761385 34.6098176 7 37 C10.15172521 46.36355572 3.62585504 57.2431429 -0.00244141 65.65380859 C-2.92681579 72.11046343 -2.92681579 72.11046343 -4 79 C2.75843659 77.21100208 6.26271707 71.49475949 9.625 65.75 C11.41168386 62.41485679 12.72240971 59.08026605 13.9375 55.5 C16.74103717 47.4609416 20.93693214 40.85585916 28 36 C32.81588944 33.75258493 37.760317 33.22201487 43 34 C46.8026029 36.0050088 48.61790841 37.42686262 51 41 C51.46155369 44.61550392 51.45406883 46.33636094 49.375 49.375 C46.3962104 51.4131192 44.53677664 51.32152515 41 51 C40.01 48.525 40.01 48.525 39 46 C35.69688027 46.06606239 33.03106769 46.20911043 30.33984375 48.2734375 C23.98385115 55.19838084 20.82684343 64.45484774 20.9375 73.75 C20.94652344 74.73484375 20.95554687 75.7196875 20.96484375 76.734375 C20.97644531 77.48203125 20.98804688 78.2296875 21 79 C21.99 79.495 21.99 79.495 23 80 C26.93515613 76.40908566 29.26643697 73.04456316 31.5625 68.25 C31.85842041 67.63817871 32.15434082 67.02635742 32.45922852 66.39599609 C34.7433922 61.64268584 36.91271497 56.84250127 39 52 C45.4 51.63076923 45.4 51.63076923 48.4375 53.5 C48.953125 53.995 49.46875 54.49 50 55 C49.57330465 61.11596664 47.46524319 66.26239893 45.15625 71.9140625 C44.13793523 74.63186205 43.46716294 77.14393568 43 80 C45.79218285 79.65751761 47.56240029 79.36974717 49.73828125 77.53125 C53.7074127 72.40979007 56.72661493 66.99128655 59.5625 61.1875 C59.9335083 60.44628906 60.3045166 59.70507812 60.68676758 58.94140625 C62.713203 54.91904826 62.713203 54.91904826 62.31640625 50.62890625 C61.88199219 50.09136719 61.44757813 49.55382812 61 49 C57.6947146 44.42345099 57.47487229 41.513841 58 36 C59.0625 33.5625 59.0625 33.5625 61 32 C64.58621578 31.02194115 66.90953451 30.60855085 70.4375 31.875 C72.94035076 35.27887704 72.30819729 38.91638595 72 43 C75.2827683 42.63524797 76.64178027 42.40598236 78.875 39.875 C81 38 81 38 84.5625 37.875 C88 39 88 39 90.0625 41.6875 C91.97004053 48.42747654 87.14091154 54.66032169 83.921875 60.43359375 C80.50472094 66.66862485 78.71035465 71.75886619 79 79 C84.52451729 78.38616475 87.54835214 73.6857013 90.83984375 69.63671875 C94.86080193 64.23409615 96.92025629 58.16386009 99.1875 51.875 C100.03250987 49.57975315 100.8800842 47.28544847 101.73046875 44.9921875 C102.09551514 43.98526855 102.46056152 42.97834961 102.83666992 41.94091797 C105.96332921 34.03667079 105.96332921 34.03667079 108 32 C109.99958364 31.95919217 112.00045254 31.95745644 114 32 C115.04894965 36.62649316 114.82806355 39.81897123 113.5625 44.375 C113.27503906 45.43460938 112.98757813 46.49421875 112.69140625 47.5859375 C112.46324219 48.38257813 112.23507812 49.17921875 112 50 C112.4125 49.41992188 112.825 48.83984375 113.25 48.2421875 C117.65502633 42.28360278 122.29917433 37.35041284 129 34 C136.8471524 33.09169583 136.8471524 33.09169583 140.0625 35.625 C141.20823257 38.52752251 141.06361987 40.90383323 141 44 C141.60328125 43.44570312 142.2065625 42.89140625 142.828125 42.3203125 C144.02695312 41.23363281 144.02695312 41.23363281 145.25 40.125 C146.43335938 39.04605469 146.43335938 39.04605469 147.640625 37.9453125 C151.75346103 34.55426557 154.82050691 33.51822598 160.09375 33.6953125 C162 34 162 34 164.5 35.5 C166.67909129 39.13181882 166.72339636 41.94898038 166 46 C163.4950386 54.57016582 159.91396536 62.72589085 156.234375 70.84375 C155.02799971 73.92840581 154.41451938 76.72332299 154 80 C164.3090123 75.37146387 167.99603732 66.367122 172 56.375 C175.76986355 46.97800069 179.94866907 40.02851718 189 35 C194.02420275 32.9903189 199.48038692 33.38089837 204.375 35.375 C207 37 207 37 209 39 C209.30078125 41.05859375 209.30078125 41.05859375 209.3125 43.4375 C209.32925781 44.21996094 209.34601563 45.00242188 209.36328125 45.80859375 C208.91425834 48.51721579 208.19944837 49.39389119 206 51 C202.8125 51.1875 202.8125 51.1875 200 51 C199.67 49.35 199.34 47.7 199 46 C193.94820495 45.59506749 193.94820495 45.59506749 189.4609375 47.66015625 C183.47005175 53.35625239 179.63569378 62.75076438 179 71 C179.13623706 74.07238065 179.51642018 76.95344715 180 80 C182.44480079 79.81171228 182.44480079 79.81171228 185 79 C186.05052413 77.316798 186.05052413 77.316798 187 75 C187.53496094 73.86949219 188.06992187 72.73898438 188.62109375 71.57421875 C189.22715058 70.27892083 189.83260337 68.98334013 190.4375 67.6875 C190.73720703 67.04876953 191.03691406 66.41003906 191.34570312 65.75195312 C192.84114189 62.55022198 194.2903806 59.3397187 195.66015625 56.08203125 C197 53 197 53 198 52 C204.46153846 51.64102564 204.46153846 51.64102564 208 54 C209.10582508 60.22026607 206.54003934 65.15596454 204.09375 70.81640625 C202.96681804 74.09658322 202.79311279 76.56050014 203 80 C210.51586369 76.46312297 214.25996102 68.92592002 217.82421875 61.78515625 C219 60 219 60 222 59 C220.93875082 67.82583177 216.51230803 77.11569414 210.125 83.375 C206.50885757 86.15935918 203.44664822 86.87803057 198.91796875 86.49609375 C197 86 197 86 195 84.25 C194.07000955 82.15752148 193.40218868 80.25225662 193 78 C192.443125 78.763125 191.88625 79.52625 191.3125 80.3125 C188.43251569 83.65950879 186.27981185 85.70647925 181.78515625 86.28515625 C175.71152379 86.51156394 175.71152379 86.51156394 173.33203125 84.80078125 C171.67043336 82.55445683 171.04624536 80.50289966 170.3125 77.8125 C169.93544922 76.46091797 169.93544922 76.46091797 169.55078125 75.08203125 C169.27814453 74.05142578 169.27814453 74.05142578 169 73 C168.56429687 73.60328125 168.12859375 74.2065625 167.6796875 74.828125 C159.87119921 85.30704868 159.87119921 85.30704868 153.73046875 86.40625 C149.26556608 86.6947736 149.26556608 86.6947736 147 86 C143.41778879 81.49803186 143.39798418 77.46611239 143.5 71.90625 C144.53585229 63.81365395 147.34975937 55.30048127 151 48 C137.0338901 55.52021302 130.84858969 72.14996553 125 86 C121.78754157 85.7395304 120.3852435 85.42509628 118.1875 83 C114.99145751 74.92578739 117.79053776 67.7174184 120.9375 60.0625 C121.31068359 59.11826172 121.68386719 58.17402344 122.06835938 57.20117188 C124.65556947 50.68886106 124.65556947 50.68886106 126 48 C112.99588721 55.00221458 107.24770132 69.66357378 101.44140625 82.42578125 C100 85 100 85 97.3125 85.875 C96.549375 85.91625 95.78625 85.9575 95 86 C93.3372974 83.32521756 92.00016187 81.0004856 91 78 C90.236875 78.94875 89.47375 79.8975 88.6875 80.875 C86.84465954 83.16609895 85.53162583 84.31224944 83 86 C75.88135593 86.6779661 75.88135593 86.6779661 72.5625 84.125 C68.92373306 79.17627696 69.58501934 73.95282607 70 68 C71.04159073 63.02200792 72.64595772 58.50338524 75 54 C72.36 54 69.72 54 67 54 C66.79955078 54.51796143 66.59910156 55.03592285 66.39257812 55.56958008 C56.76663163 80.15557892 56.76663163 80.15557892 48 86 C44.93611732 86.53603841 42.06251197 86.55379963 39 86 C36.19782061 83.40798407 35.20037833 81.60113499 34 78 C33.59007812 78.49371094 33.18015625 78.98742187 32.7578125 79.49609375 C31.94957031 80.45708984 31.94957031 80.45708984 31.125 81.4375 C30.32449219 82.39462891 30.32449219 82.39462891 29.5078125 83.37109375 C27.70541568 85.31824265 26.61037195 85.92812222 23.9765625 86.23828125 C17.70867075 86.43610508 17.70867075 86.43610508 14.5625 84.5 C12.42368496 81.07789594 11.79095078 77.95475389 11 74 C10.34 74.680625 9.68 75.36125 9 76.0625 C8.54109375 76.51109375 8.0821875 76.9596875 7.609375 77.421875 C6.4523158 78.55646703 5.31951238 79.71599132 4.203125 80.890625 C0.69648188 84.34116183 -1.76195565 86.46896692 -6.8125 86.625 C-9.45263694 86.52219821 -10.61994176 86.30229919 -12.69921875 84.6484375 C-15.83846035 80.67017937 -15.48364713 75.79725669 -15 71 C-13.36498536 63.37532778 -11.19357188 56.11919463 -8 49 C-20.33979882 54.98293276 -27.42202456 70.64551445 -32.08984375 82.734375 C-33 85 -33 85 -34 86 C-35.66617115 86.04063832 -37.33388095 86.042721 -39 86 C-43.27093914 76.75249729 -39.34469104 66.73972303 -36.375 57.5625 C-36.015271 56.43013916 -35.65554199 55.29777832 -35.28491211 54.13110352 C-34.20315631 50.74963442 -33.10273249 47.37467606 -32 44 C-31.69755371 43.0522168 -31.39510742 42.10443359 -31.08349609 41.12792969 C-20.85100747 9.13602766 -20.85100747 9.13602766 -9.98828125 0.97265625 C-6.39116446 -0.7870335 -3.93644341 -0.67869714 0 0 Z M-4 8 C-7.75391193 12.95651246 -10.9952417 18.10365205 -13 24 C-12.67 24.99 -12.34 25.98 -12 27 C-10.67865029 24.77567782 -9.36788794 22.54616381 -8.0625 20.3125 C-7.68931641 19.68666016 -7.31613281 19.06082031 -6.93164062 18.41601562 C-4.92058789 14.95555551 -3.48724335 12.04489324 -3 8 C-3.33 8 -3.66 8 -4 8 Z M-14 27 C-13 29 -13 29 -13 29 Z M-20 46 C-19 48 -19 48 -19 48 Z " fill="#5584AC" transform="translate(436,32)"/>
<path d="M0 0 C3.66691748 2.98814765 5.73388081 6.14522525 6.4609375 10.87109375 C6.73482622 17.54713129 5.28924515 22.42814758 1.3515625 27.828125 C-1.29921643 30.69249975 -4.24740593 32.68678855 -7.5859375 34.6796875 C-9.6718794 35.84695916 -9.6718794 35.84695916 -11.5390625 37.87109375 C-11.11753906 38.474375 -10.69601562 39.07765625 -10.26171875 39.69921875 C-9.43994141 40.89804688 -9.43994141 40.89804688 -8.6015625 42.12109375 C-8.05628906 42.91 -7.51101563 43.69890625 -6.94921875 44.51171875 C-3.77266346 49.82650932 -3.85207133 55.83995031 -4.5390625 61.87109375 C-7.35197849 71.05907636 -12.84664355 75.3115925 -20.9765625 79.74609375 C-28.39655671 82.17525852 -38.06726378 82.37545875 -45.5 79.875 C-50.60909312 76.87913643 -53.18730826 73.04262275 -55.015625 67.45703125 C-56.13834814 61.91044378 -55.39468087 57.12768346 -52.9140625 52.05859375 C-50.22166758 48.44511635 -47.83241888 46.18971143 -43.5390625 44.87109375 C-34.03864962 43.70181216 -34.03864962 43.70181216 -30.765625 46.25390625 C-29.04380828 48.52407224 -28.67178047 50.01765746 -28.5390625 52.87109375 C-29.9765625 56.18359375 -29.9765625 56.18359375 -31.5390625 58.87109375 C-32.21453125 58.8246875 -32.89 58.77828125 -33.5859375 58.73046875 C-39.12795637 58.41055933 -39.12795637 58.41055933 -44.1015625 60.49609375 C-45.90094175 63.4689812 -46.5390625 65.380266 -46.5390625 68.87109375 C-44.43878104 72.24654609 -43.33703366 73.60510336 -39.5390625 74.87109375 C-32.88505428 75.62356641 -27.63793514 75.38625032 -22.1328125 71.34765625 C-18.4437528 67.92985094 -17.37426527 64.37329398 -17.0390625 59.49609375 C-17.2339262 54.21705897 -19.4215237 50.98323608 -22.5390625 46.87109375 C-22.92707031 46.21625 -23.31507813 45.56140625 -23.71484375 44.88671875 C-26.02374997 41.42693358 -27.6252691 40.08094424 -31.75390625 39.1328125 C-34.20783724 38.83163634 -36.66518356 38.55716467 -39.125 38.30859375 C-46.29410337 37.38989858 -50.93379093 34.30241886 -55.3515625 28.66015625 C-58.48115697 23.94517511 -59.01807403 19.42762755 -58.5390625 13.87109375 C-57.19707432 8.37732963 -55.16267023 4.33879955 -50.5390625 0.87109375 C-46.60015387 -0.25430872 -44.49071746 -0.50129297 -40.6640625 0.99609375 C-38.12966118 3.23233021 -37.80769836 4.5579182 -37.5390625 7.87109375 C-38.4671875 8.24234375 -39.3953125 8.61359375 -40.3515625 8.99609375 C-44.20788657 11.26451968 -45.11044981 12.66462304 -46.5390625 16.87109375 C-47.26666897 21.37147453 -46.90800515 24.15956149 -44.7890625 28.24609375 C-42.67022128 30.71807518 -41.6066021 31.9415363 -38.5390625 32.87109375 C-36.87257979 32.89585575 -35.20550304 32.89854747 -33.5390625 32.87109375 C-33.755625 32.23042969 -33.9721875 31.58976562 -34.1953125 30.9296875 C-36.34267304 24.25895175 -37.64669365 19.08322408 -35.2890625 12.24609375 C-29.04370199 0.20146992 -12.87280924 -5.72344903 0 0 Z M-20.5390625 6.87109375 C-23.59682417 11.80296741 -23.96162017 15.63698275 -23.19921875 21.359375 C-22.13785361 25.39758673 -20.03883588 28.56881009 -17.5390625 31.87109375 C-11.69772866 31.87109375 -8.56805773 28.87285651 -4.53515625 25.05078125 C-1.33432911 21.55555318 0.29796854 18.70675369 0.578125 13.83203125 C0.36658468 10.0666135 -0.41792461 8.05280059 -2.5390625 4.87109375 C-8.71944704 0.75083739 -15.14560486 1.86288309 -20.5390625 6.87109375 Z " fill="#5584AC" transform="translate(398.5390625,37.12890625)"/>
<path d="M0 0 C2.375 1.125 2.375 1.125 4 3 C5.16379881 6.56898301 5.30920437 8.28394777 3.8125 11.75 C1.88971429 14.1369064 0.93359496 15.16183001 -2 16 C-5.38978773 15.86164132 -7.28778346 15.61725434 -9.875 13.375 C-11.46134558 10.02604821 -11.45746657 7.65973254 -11 4 C-8.09912777 -0.52536068 -5.13093735 -0.64136717 0 0 Z " fill="#5584AC" transform="translate(155,45)"/>
<path d="M0 0 C2.5 1.5625 2.5 1.5625 4 4 C4.55802097 7.90614682 4.58392818 10.05111671 2.5 13.4375 C-0.53037069 15.33148168 -2.55830934 15.64334247 -6.08984375 15.4453125 C-8 15 -8 15 -10.5625 12.9375 C-12.43625505 9.10852228 -12.12962701 7.06665724 -11 3 C-8.71707037 -1.16298932 -4.22696498 -0.74843646 0 0 Z " fill="#5584AC" transform="translate(261,45)"/>
</svg>
